# xmcd
#
# Track frame offsets:
#	150
#	30291
#	46239
#	63481
#
# Disc length: 1022 seconds
#
# Revision: 0
# Processed by: cddbd v1.5.1PL0 Copyright (c) Steve Scherf et al.
# Submitted via: dBpowerAMP V4.0
#
DISCID=2803fc04
DTITLE=The Black Keys - suicidesqueeze
DYEAR=1900
DGENRE=Blues
TTITLE0=A Blueprint of something never finished
TTITLE1=the Moan
TTITLE2=Thickfreakness
TTITLE3=Yearnin'
EXTD=
EXTT0=
EXTT1=
EXTT2=
EXTT3=
PLAYORDER=
